<?xml version="1.0" encoding="UTF-8" standalone="no"?>
<!-- Created with Inkscape (http://www.inkscape.org/) -->

<svg
   xmlns:dc="http://purl.org/dc/elements/1.1/"
   xmlns:cc="http://creativecommons.org/ns#"
   xmlns:rdf="http://www.w3.org/1999/02/22-rdf-syntax-ns#"
   xmlns:svg="http://www.w3.org/2000/svg"
   xmlns="http://www.w3.org/2000/svg"
   version="1.1"
   width="83.581337"
   height="122.60373"
   id="svg4461">
  <defs
     id="defs4463">
    <filter
       x="-0.32395345"
       y="-0.64790696"
       width="1.6479069"
       height="2.2958138"
       color-interpolation-filters="sRGB"
       id="filter4168-0-9-3-8-0">
      <feGaussianBlur
         id="feGaussianBlur4170-78-1-1-7-1"
         stdDeviation="4.7814573" />
    </filter>
    <filter
       x="-0.32395345"
       y="-0.64790696"
       width="1.6479069"
       height="2.2958138"
       color-interpolation-filters="sRGB"
       id="filter4168-0-9-3-8">
      <feGaussianBlur
         id="feGaussianBlur4170-78-1-1-7"
         stdDeviation="4.7814573" />
    </filter>
  </defs>
  <metadata
     id="metadata4466">
    <rdf:RDF>
      <cc:Work
         rdf:about="">
        <dc:format>image/svg+xml</dc:format>
        <dc:type
           rdf:resource="http://purl.org/dc/dcmitype/StillImage" />
        <dc:title></dc:title>
      </cc:Work>
    </rdf:RDF>
  </metadata>
  <g
     transform="translate(-364.04027,-410.14336)"
     id="layer1">
    <path
       d="m 468.09351,628.04175 a 17.711645,8.8558226 0 1 1 -35.42329,0 17.711645,8.8558226 0 1 1 35.42329,0 z"
       transform="matrix(1,0,0,0.47142855,-57.154452,227.08551)"
       id="path4158-41-5-4-6"
       style="opacity:0.72830188;color:#000000;fill:#6c535d;fill-opacity:0.53777777;fill-rule:nonzero;stroke:none;stroke-width:5;marker:none;visibility:visible;display:inline;overflow:visible;filter:url(#filter4168-0-9-3-8);enable-background:accumulate" />
    <path
       d="m 406.34031,410.14336 c -22.79322,0 -41.28125,18.45678 -41.28125,41.25 0,22.79323 33.88144,72.47304 41.28125,72.47304 7.96994,0 41.2813,-49.67981 41.2813,-72.47304 0,-22.79322 -18.48808,-41.25 -41.2813,-41.25 z"
       id="path2987-5-8-0-7"
       style="color:#000000;fill:#e74c3c;fill-opacity:1;fill-rule:nonzero;stroke:none;stroke-width:5;marker:none;visibility:visible;display:inline;overflow:visible;enable-background:accumulate" />
    <path
       d="m 413.61891,430.9704 c -0.21604,0.0437 -0.43387,0.15985 -0.5625,0.34375 -1.51306,1.84296 -3.06986,3.66529 -4.5625,5.53125 -1.57493,1.9307 -3.14383,3.85053 -4.71875,5.78125 -2.30976,2.85348 -4.68776,5.66339 -6.65625,8.78125 -0.73976,1.22301 -1.40835,2.52997 -1.84375,3.90625 -0.93623,2.82705 -0.95043,5.92935 -0.0937,8.78125 0.28596,1.04068 0.52183,2.07719 0.78125,3.125 0.32536,1.40017 -0.15253,2.82822 -0.59375,4.15625 -0.12871,0.47572 -0.36869,0.91924 -0.625,1.34375 -1.07386,1.82855 -2.12441,3.66521 -3.1875,5.5 0.71073,0.4667 1.43395,0.91036 2.1875,1.3125 1.34499,-2.40415 2.74859,-4.77263 4.21875,-7.09375 0.55341,-0.80301 1.42543,-1.26268 2.21875,-1.78125 0.74825,-0.42111 1.5277,-0.81567 2.375,-1 0.45863,-0.0944 0.90214,-0.2713 1.375,-0.3125 0.58265,-0.0565 1.11779,-0.30625 1.6875,-0.4375 0.91987,-0.23223 1.74915,-0.72386 2.625,-1.09375 0.45707,-0.28614 1.039,-0.39788 1.375,-0.84375 0.29094,-0.34838 0.73674,-0.5399 1.03125,-0.875 1.6092,-1.77622 2.79487,-3.87982 3.8125,-6.03125 0.69067,-1.56568 1.43806,-3.10802 2.03125,-4.71875 1.4735,-3.79652 2.75366,-7.66736 4.21875,-11.46875 0.48851,-1.39053 1.13537,-2.72832 1.59375,-4.125 0.28359,-0.58838 0.60842,-1.15139 0.78125,-1.78125 0.11898,-0.45888 0.32401,-0.92332 0.1875,-1.40625 l -0.125,-0.0937 c -0.14963,0.0258 -0.3345,0.0362 -0.4375,0.15625 -0.46037,0.48629 -0.77277,1.08508 -1.125,1.65625 -0.60889,1.07407 -1.24327,2.10857 -1.84375,3.1875 -1.08428,1.95579 -2.25347,3.87336 -3.3125,5.84375 -0.76288,1.5352 -1.67818,2.98276 -2.4375,4.53125 -0.4984,0.90213 -1.01358,1.79848 -1.5,2.71875 -0.23723,0.46921 -0.42505,1.03103 -0.875,1.34375 -0.48528,0.39333 -1.1855,-0.20977 -1.1875,-0.75 0.017,-0.57386 0.30826,-1.08749 0.59375,-1.5625 0.30847,-0.49542 0.47276,-1.06709 0.78125,-1.5625 0.43354,-0.69262 0.69145,-1.46365 1.125,-2.15625 0.34676,-0.69782 0.6628,-1.41328 1.09375,-2.0625 0.33633,-0.52424 0.51583,-1.12717 0.84375,-1.65625 0.42252,-0.65409 0.64839,-1.40355 1.0625,-2.0625 0.3157,-0.76064 0.76964,-1.46297 1.09375,-2.21875 0.46438,-0.84321 0.93945,-1.67626 1.4375,-2.5 0.37722,-0.77004 0.69257,-1.56269 1.03125,-2.34375 0.26613,-0.73315 0.66312,-1.42744 0.84375,-2.1875 l -0.5,-0.28125 c -1.39428,1.17065 -2.23664,2.80924 -3.15625,4.34375 -0.79422,1.25895 -1.48706,2.5848 -2.28125,3.84375 -1.85548,3.19433 -3.68419,6.42579 -5.53125,9.625 -0.30232,0.46528 -0.56203,0.9977 -1.0625,1.28125 -0.45126,0.33441 -1.11199,-0.24902 -0.96875,-0.75 0.11839,-0.59393 0.4535,-1.09538 0.6875,-1.65625 0.38183,-0.99187 1.05681,-1.82679 1.46875,-2.8125 0.39122,-0.93034 1.03788,-1.73076 1.4375,-2.65625 0.14877,-0.37434 0.45346,-0.65204 0.59375,-1.03125 0.38054,-0.97017 1.05942,-1.77644 1.46875,-2.71875 0.12674,-0.29727 0.33356,-0.55135 0.46875,-0.84375 0.16467,-0.42129 0.4916,-0.76621 0.65625,-1.1875 0.41541,-0.68063 0.74569,-1.37424 1.09375,-2.09375 0.5917,-1.00542 1.08738,-2.0932 1.6875,-3.09375 0.24148,-0.61268 0.36183,-1.26361 0.625,-1.875 l -0.37505,-0.2188 c -1.39463,1.24902 -2.32759,2.92262 -3.34375,4.46875 -1.09069,1.77249 -2.2218,3.50874 -3.3125,5.28125 -0.70991,1.01574 -1.27211,2.11282 -1.96875,3.125 -1.00001,1.71261 -2.06493,3.37776 -3.09375,5.0625 -0.24659,0.40767 -0.62688,0.8482 -1.125,0.875 -0.2458,-0.0409 -0.55838,-0.0696 -0.6875,-0.3125 -0.0611,-0.36082 0.0797,-0.72052 0.1875,-1.0625 0.2269,-0.58742 0.43519,-1.19375 0.84375,-1.6875 0.41211,-0.48049 0.53266,-1.10223 0.90625,-1.59375 0.50706,-0.68384 0.87035,-1.48422 1.34375,-2.1875 0.50706,-0.68385 0.91601,-1.41537 1.34375,-2.15625 0.72295,-1.23271 1.45016,-2.47631 2.15625,-3.71875 0.6082,-0.91731 1.10214,-1.90004 1.71875,-2.8125 0.20898,-0.36202 0.34021,-0.79068 0.5625,-1.15625 0.63023,-0.9944 1.05498,-2.10222 1.5625,-3.15625 0.0936,-0.18165 0.122,-0.36235 0.125,-0.5625 l -0.25,-0.15625 z"
       id="path4"
       style="fill:#ffffff;stroke:#000000;stroke-width:0.00911379" />
  </g>
</svg>
