<?xml version="1.0" encoding="UTF-8" standalone="no"?>
<!-- Created with Inkscape (http://www.inkscape.org/) -->

<svg
   xmlns:dc="http://purl.org/dc/elements/1.1/"
   xmlns:cc="http://creativecommons.org/ns#"
   xmlns:rdf="http://www.w3.org/1999/02/22-rdf-syntax-ns#"
   xmlns:svg="http://www.w3.org/2000/svg"
   xmlns="http://www.w3.org/2000/svg"
   version="1.1"
   width="83.581337"
   height="122.60373"
   id="svg4461">
  <defs
     id="defs4463">
    <filter
       x="-0.32395345"
       y="-0.64790696"
       width="1.6479069"
       height="2.2958138"
       color-interpolation-filters="sRGB"
       id="filter4168-0-9-3-8">
      <feGaussianBlur
         id="feGaussianBlur4170-78-1-1-7"
         stdDeviation="4.7814573" />
    </filter>
    <filter
       x="-0.32395345"
       y="-0.64790696"
       width="1.6479069"
       height="2.2958138"
       color-interpolation-filters="sRGB"
       id="filter4168-0-9-3-6">
      <feGaussianBlur
         id="feGaussianBlur4170-78-1-1-6"
         stdDeviation="4.7814573" />
    </filter>
  </defs>
  <metadata
     id="metadata4466">
    <rdf:RDF>
      <cc:Work
         rdf:about="">
        <dc:format>image/svg+xml</dc:format>
        <dc:type
           rdf:resource="http://purl.org/dc/dcmitype/StillImage" />
        <dc:title></dc:title>
      </cc:Work>
    </rdf:RDF>
  </metadata>
  <g
     transform="translate(-364.0579,-407.29111)"
     id="layer1">
    <path
       d="m 468.09351,628.04175 a 17.711645,8.8558226 0 1 1 -35.42329,0 17.711645,8.8558226 0 1 1 35.42329,0 z"
       transform="matrix(1,0,0,0.47142855,-57.13682,224.23326)"
       id="path4158-41-5-4-0"
       style="opacity:0.72830188;color:#000000;fill:#6c535d;fill-opacity:0.53777777;fill-rule:nonzero;stroke:none;stroke-width:5;marker:none;visibility:visible;display:inline;overflow:visible;filter:url(#filter4168-0-9-3-6);enable-background:accumulate" />
    <path
       d="m 406.35794,407.29111 c -22.79322,0 -41.28125,18.45678 -41.28125,41.25 0,22.79323 33.88144,72.47304 41.28125,72.47304 7.96994,0 41.2813,-49.67981 41.2813,-72.47304 0,-22.79322 -18.48808,-41.25 -41.2813,-41.25 z"
       id="path2987-5-8-0-9"
       style="color:#000000;fill:#e74c3c;fill-opacity:1;fill-rule:nonzero;stroke:none;stroke-width:5;marker:none;visibility:visible;display:inline;overflow:visible;enable-background:accumulate" />
    <path
       d="m 387.76154,463.32264 c -2.08628,0 -4.02728,0.60956 -5.65625,1.65625 4.03108,7.59892 11.43349,13.15938 20.21875,14.625 l -0.28125,-5.8125 c 0,-5.80131 -4.66744,-10.46875 -10.46875,-10.46875 l -3.8125,0 z"
       id="rect20045-1"
       style="color:#000000;fill:#ffffff;fill-opacity:1;fill-rule:nonzero;stroke:none;stroke-width:5;marker:none;visibility:visible;display:inline;overflow:visible;enable-background:accumulate" />
    <path
       d="m -90.473622,479.71124 a 11.243831,11.243831 0 1 1 -22.487658,0 11.243831,11.243831 0 1 1 22.487658,0 z"
       transform="matrix(0.66745076,0,0,0.66745076,457.94346,135.11836)"
       id="path20047-0"
       style="color:#000000;fill:#ffffff;fill-opacity:1;fill-rule:nonzero;stroke:none;stroke-width:5;marker:none;visibility:visible;display:inline;overflow:visible;enable-background:accumulate" />
    <path
       d="m 424.10529,463.32264 c -5.80131,0 -10.46875,4.66744 -10.46875,10.46875 l -0.25,5.46875 c 8.30544,-1.92668 15.19274,-7.56108 18.875,-15.03125 -1.31163,-0.59114 -2.77651,-0.90625 -4.3125,-0.90625 l -3.84375,0 z"
       id="rect20045-1-4"
       style="color:#000000;fill:#ffffff;fill-opacity:1;fill-rule:nonzero;stroke:none;stroke-width:5;marker:none;visibility:visible;display:inline;overflow:visible;enable-background:accumulate" />
    <path
       d="m -90.473622,479.71124 a 11.243831,11.243831 0 1 1 -22.487658,0 11.243831,11.243831 0 1 1 22.487658,0 z"
       transform="matrix(-0.66745076,0,0,0.66745076,357.74994,135.11835)"
       id="path20047-0-4"
       style="color:#000000;fill:#ffffff;fill-opacity:1;fill-rule:nonzero;stroke:none;stroke-width:5;marker:none;visibility:visible;display:inline;overflow:visible;enable-background:accumulate" />
    <path
       d="m 395.9466,434.86709 11.36082,0 c 1.39865,0 2.52464,1.12598 2.52464,2.52463 l 0,3.8612 c 0,1.39864 -1.12599,2.52462 -2.52464,2.52462 l -1.4201,0 -1.4201,0 -2.84021,0 -6.09884,4.54493 1.83853,-4.54493 -1.4201,0 c -1.39865,0 -2.52463,-1.12598 -2.52463,-2.52462 l 0,-3.8612 c 0,-1.39865 1.12598,-2.52463 2.52463,-2.52463 z"
       id="rect25089"
       style="color:#000000;fill:#ffffff;fill-opacity:1;fill-rule:nonzero;stroke:none;stroke-width:2;marker:none;visibility:visible;display:inline;overflow:visible;enable-background:accumulate" />
    <path
       d="m 404.76154,429.79139 c -1.90354,0 -3.4375,1.53397 -3.4375,3.4375 l 0,1.15625 6.375,0 c 1.4957,0 2.6875,1.22305 2.6875,2.71875 l 0,4.125 c 0,0.24055 -0.004,0.46583 -0.0625,0.6875 l 2.15625,0 8.3125,6.1875 -2.5,-6.1875 1.9375,0 c 1.90354,0 3.40625,-1.50272 3.40625,-3.40625 l 0,-5.28125 c 0,-1.90353 -1.50271,-3.4375 -3.40625,-3.4375 l -15.46875,0 z"
       id="rect25089-5"
       style="color:#000000;fill:#ffffff;fill-opacity:1;fill-rule:nonzero;stroke:none;stroke-width:2;marker:none;visibility:visible;display:inline;overflow:visible;enable-background:accumulate" />
  </g>
</svg>
