<?xml version="1.0" encoding="UTF-8" standalone="no"?>
<!-- Created with Inkscape (http://www.inkscape.org/) -->

<svg
   xmlns:dc="http://purl.org/dc/elements/1.1/"
   xmlns:cc="http://creativecommons.org/ns#"
   xmlns:rdf="http://www.w3.org/1999/02/22-rdf-syntax-ns#"
   xmlns:svg="http://www.w3.org/2000/svg"
   xmlns="http://www.w3.org/2000/svg"
   version="1.1"
   width="82.562553"
   height="122.22149"
   id="svg4461">
  <defs
     id="defs4463">
    <filter
       x="-0.32395345"
       y="-0.64790696"
       width="1.6479069"
       height="2.2958138"
       color-interpolation-filters="sRGB"
       id="filter4168-0-9-3-8-7">
      <feGaussianBlur
         id="feGaussianBlur4170-78-1-1-7-0"
         stdDeviation="4.7814573" />
    </filter>
    <filter
       x="-0.32395345"
       y="-0.64790696"
       width="1.6479069"
       height="2.2958138"
       color-interpolation-filters="sRGB"
       id="filter4168-0-9-3-6-1">
      <feGaussianBlur
         id="feGaussianBlur4170-78-1-1-6-63"
         stdDeviation="4.7814573" />
    </filter>
  </defs>
  <metadata
     id="metadata4466">
    <rdf:RDF>
      <cc:Work
         rdf:about="">
        <dc:format>image/svg+xml</dc:format>
        <dc:type
           rdf:resource="http://purl.org/dc/dcmitype/StillImage" />
        <dc:title></dc:title>
      </cc:Work>
    </rdf:RDF>
  </metadata>
  <g
     transform="translate(-345.80325,-410.79267)"
     id="layer1">
    <path
       d="m 468.09351,628.04175 a 17.711645,8.8558226 0 1 1 -35.42329,0 17.711645,8.8558226 0 1 1 35.42329,0 z"
       transform="matrix(1,0,0,0.47142855,-74.772786,227.35258)"
       id="path4158-41-5-4-0-4"
       style="opacity:0.72830188;color:#000000;fill:#6c5367;fill-opacity:0.53777777;fill-rule:nonzero;stroke:none;stroke-width:5;marker:none;visibility:visible;display:inline;overflow:visible;filter:url(#filter4168-0-9-3-6-1);enable-background:accumulate" />
    <path
       d="m 387.0845,410.79267 c -22.79322,0 -41.28125,18.45678 -41.28125,41.25 0,22.79323 33.88144,72.47304 41.28125,72.47304 7.96994,0 41.2813,-49.67981 41.2813,-72.47304 0,-22.79322 -18.48808,-41.25 -41.2813,-41.25 z"
       id="path2987-5-8-0-93"
       style="color:#000000;fill:#9a56b5;fill-opacity:1;fill-rule:nonzero;stroke:none;stroke-width:5;marker:none;visibility:visible;display:inline;overflow:visible;enable-background:accumulate" />
    <path
       d="m 384.60823,427.32259 c -0.72339,0.0799 -1.45043,0.21013 -2.15625,0.34375 l -1.5,5.625 c -0.17428,0.65045 -0.84955,1.01805 -1.5,0.84375 l -0.34375,-0.0937 c -0.65045,-0.17429 -1.04929,-0.84955 -0.875,-1.5 l 1.09375,-4.125 c -0.78716,0.24575 -1.5567,0.5637 -2.3125,0.875 l -11.59375,43.21875 c 1.59831,2.07077 3.48907,3.91295 5.59375,5.46875 l 4.15625,-15.40625 c 0.1743,-0.65046 0.8183,-1.01803 1.46875,-0.84375 l 18.1875,4.875 c 0.65046,0.17429 1.04929,0.81829 0.875,1.46875 l -4.0625,15.125 c 1.83965,-0.25594 3.63575,-0.68776 5.34375,-1.28125 l 12.03125,-45 c -0.12565,-0.14518 -0.24645,-0.29494 -0.375,-0.4375 l -1.0625,3.9375 c -0.1743,0.65044 -0.8183,1.01804 -1.46875,0.84375 l -0.375,-0.0937 c -0.65045,-0.17428 -1.01804,-0.8183 -0.84375,-1.46875 l 1.46875,-5.5 c -0.42064,-0.37124 -0.87008,-0.71657 -1.3125,-1.0625 l -2.71875,10.15625 c -0.17429,0.65046 -0.84954,1.01804 -1.5,0.84375 l -11.09375,-2.96875 c -0.14504,-2.31641 -1.75568,-4.36514 -4.125,-5 l -1.96875,-0.53125 c -0.40838,-0.10942 -0.81393,-0.17114 -1.21875,-0.1875 l 0.34375,-1.21875 c 0.51567,0.68283 1.23446,1.19889 2.125,1.4375 2.12369,0.56904 4.30596,-0.68882 4.875,-2.8125 0.56904,-2.12369 -0.68881,-4.30596 -2.8125,-4.875 -0.89185,-0.23897 -1.77368,-0.14723 -2.5625,0.1875 l 0.21875,-0.84375 z m -2.9375,13.84375 c 0.1574,-0.0221 0.30614,-0.0123 0.46875,0.0313 l 18.1875,4.875 c 0.65046,0.17428 1.01804,0.84954 0.84375,1.5 l -4.34375,16.21875 c -0.17429,0.65044 -0.84954,1.04929 -1.5,0.875 l -2.65625,-0.71875 c 0.40412,-2.75609 -1.27355,-5.44858 -4.03125,-6.1875 l -1.96875,-0.53125 c -2.75771,-0.73892 -5.56568,0.75484 -6.59375,3.34375 l -2.90625,-0.78125 c -0.65045,-0.1743 -1.04929,-0.84956 -0.875,-1.5 l 4.34375,-16.21875 c 0.13072,-0.48784 0.55905,-0.83982 1.03125,-0.90625 z m -5.53125,2.09375 c 0.1574,-0.0221 0.30614,-0.0123 0.46875,0.0313 l 0.34375,0.0937 c 0.65045,0.17428 1.04929,0.84954 0.875,1.5 l -2.375,8.875 c -0.17428,0.65045 -0.84955,1.04929 -1.5,0.875 l -0.34375,-0.0937 c -0.65046,-0.17428 -1.04928,-0.84955 -0.875,-1.5 l 2.375,-8.875 c 0.13071,-0.48784 0.55905,-0.83982 1.03125,-0.90625 z m 13.03125,6.21875 c -1.84627,-0.11212 -3.56459,1.07927 -4.0625,2.9375 -0.56904,2.12369 0.68882,4.33721 2.8125,4.90625 2.12369,0.56904 4.27471,-0.72006 4.84375,-2.84375 0.56904,-2.12369 -0.68881,-4.30596 -2.8125,-4.875 -0.26546,-0.0711 -0.5175,-0.10898 -0.78125,-0.125 z m 13.59375,0.9375 c 0.1574,-0.0222 0.33738,-0.0123 0.5,0.0313 l 0.34375,0.0937 c 0.65046,0.17429 1.0493,0.84955 0.875,1.5 l -2.375,8.875 c -0.1743,0.65045 -0.84954,1.04929 -1.5,0.875 l -0.375,-0.0937 c -0.65046,-0.17429 -1.01803,-0.84956 -0.84375,-1.5 l 2.375,-8.875 c 0.13071,-0.48784 0.5278,-0.83981 1,-0.90625 z m -32.125,13.375 c 0.15688,-0.0202 0.30613,-0.0123 0.46875,0.0313 l 0.34375,0.0937 c 0.65045,0.17429 1.04929,0.8183 0.875,1.46875 l -2.375,8.90625 c -0.17429,0.65046 -0.84955,1.01803 -1.5,0.84375 l -0.34375,-0.0937 c -0.65045,-0.17429 -1.04928,-0.81831 -0.875,-1.46875 l 2.375,-8.90625 c 0.13071,-0.48784 0.56061,-0.81439 1.03125,-0.875 z m 26.65625,7.125 c 0.15688,-0.0202 0.30614,-0.0123 0.46875,0.0313 l 0.34375,0.0937 c 0.65046,0.17429 1.04929,0.84955 0.875,1.5 l -2.375,8.875 c -0.17429,0.65044 -0.84954,1.01804 -1.5,0.84375 l -0.34375,-0.0937 c -0.65046,-0.17429 -1.04929,-0.81829 -0.875,-1.46875 l 2.375,-8.90625 c 0.13072,-0.48784 0.56062,-0.81439 1.03125,-0.875 z m -9.4375,0.9375 c -1.85023,-0.11319 -3.59584,1.07927 -4.09375,2.9375 -0.56904,2.12368 0.72007,4.30596 2.84375,4.875 2.12369,0.56904 4.30596,-0.68881 4.875,-2.8125 0.56904,-2.12368 -0.68882,-4.30596 -2.8125,-4.875 -0.26546,-0.0711 -0.54818,-0.10883 -0.8125,-0.125 z m -4.375,7.59375 c -1.78474,0.13851 -3.38679,1.14131 -4.3125,2.6875 2.70015,0.86085 5.57697,1.34375 8.5625,1.34375 1.09058,0 2.16047,-0.0668 3.21875,-0.1875 -0.64989,-1.49752 -1.95399,-2.70013 -3.65625,-3.15625 l -1.9375,-0.53125 c -0.62788,-0.16824 -1.26242,-0.20379 -1.875,-0.15625 z"
       id="rect25574"
       style="color:#000000;fill:#ffffff;fill-opacity:1;fill-rule:nonzero;stroke:none;stroke-width:2;marker:none;visibility:visible;display:inline;overflow:visible;enable-background:accumulate" />
  </g>
</svg>
