<?xml version="1.0" encoding="UTF-8" standalone="no"?>
<!-- Created with Inkscape (http://www.inkscape.org/) -->

<svg
   xmlns:dc="http://purl.org/dc/elements/1.1/"
   xmlns:cc="http://creativecommons.org/ns#"
   xmlns:rdf="http://www.w3.org/1999/02/22-rdf-syntax-ns#"
   xmlns:svg="http://www.w3.org/2000/svg"
   xmlns="http://www.w3.org/2000/svg"
   version="1.1"
   width="56.3437"
   height="56.34375"
   id="svg4369">
  <defs
     id="defs4371" />
  <metadata
     id="metadata4374">
    <rdf:RDF>
      <cc:Work
         rdf:about="">
        <dc:format>image/svg+xml</dc:format>
        <dc:type
           rdf:resource="http://purl.org/dc/dcmitype/StillImage" />
        <dc:title></dc:title>
      </cc:Work>
    </rdf:RDF>
  </metadata>
  <g
     transform="translate(-283.25672,-495.61888)"
     id="layer1">
    <path
       d="m 311.44422,495.61893 c -15.55255,0 -28.1875,12.63495 -28.1875,28.1875 0,9.42874 4.6588,17.7652 11.78125,22.875 1.12346,-1.92936 2.27865,-3.93864 3.25,-5.59375 0.25631,-0.42451 0.49629,-0.86803 0.625,-1.34375 0.44122,-1.32803 0.91911,-2.75608 0.59375,-4.15625 -0.25942,-1.04781 -0.49529,-2.08432 -0.78125,-3.125 -0.85673,-2.8519 -0.84248,-5.9542 0.0937,-8.78125 0.4354,-1.37628 1.10399,-2.68324 1.84375,-3.90625 1.96849,-3.11786 4.34649,-5.92777 6.65625,-8.78125 1.57492,-1.93072 3.14382,-3.85055 4.71875,-5.78125 1.49264,-1.86596 3.04944,-3.68829 4.5625,-5.53125 0.12863,-0.1839 0.34646,-0.30005 0.5625,-0.34375 l 0.25,0.15625 c -0.003,0.20015 -0.0314,0.38085 -0.125,0.5625 -0.50752,1.05403 -0.93227,2.16185 -1.5625,3.15625 -0.22229,0.36557 -0.35352,0.79423 -0.5625,1.15625 -0.61661,0.91246 -1.11055,1.89519 -1.71875,2.8125 -0.70609,1.24244 -1.4333,2.48604 -2.15625,3.71875 -0.42774,0.74088 -0.83669,1.4724 -1.34375,2.15625 -0.4734,0.70328 -0.83669,1.50366 -1.34375,2.1875 -0.37359,0.49152 -0.49414,1.11326 -0.90625,1.59375 -0.40856,0.49375 -0.61685,1.10008 -0.84375,1.6875 -0.1078,0.34198 -0.2486,0.70168 -0.1875,1.0625 0.12912,0.2429 0.4417,0.2716 0.6875,0.3125 0.49812,-0.0268 0.87841,-0.46733 1.125,-0.875 1.02882,-1.68474 2.09374,-3.34989 3.09375,-5.0625 0.69664,-1.01218 1.25884,-2.10926 1.96875,-3.125 1.0907,-1.77251 2.22181,-3.50876 3.3125,-5.28125 1.01616,-1.54613 1.94912,-3.21973 3.34375,-4.46875 l 0.375,0.21875 c -0.26317,0.61139 -0.38352,1.26232 -0.625,1.875 -0.60012,1.00055 -1.0958,2.08833 -1.6875,3.09375 -0.34806,0.71951 -0.67834,1.41312 -1.09375,2.09375 -0.16465,0.42129 -0.49158,0.76621 -0.65625,1.1875 -0.13519,0.2924 -0.34201,0.54648 -0.46875,0.84375 -0.40933,0.94231 -1.08821,1.74858 -1.46875,2.71875 -0.14029,0.37921 -0.44498,0.65691 -0.59375,1.03125 -0.39962,0.92549 -1.04628,1.72591 -1.4375,2.65625 -0.41194,0.98571 -1.08692,1.82063 -1.46875,2.8125 -0.234,0.56087 -0.56911,1.06232 -0.6875,1.65625 -0.14324,0.50098 0.51749,1.08441 0.96875,0.75 0.50047,-0.28355 0.76018,-0.81597 1.0625,-1.28125 1.84706,-3.19921 3.67577,-6.43067 5.53125,-9.625 0.79419,-1.25895 1.48703,-2.5848 2.28125,-3.84375 0.91961,-1.53451 1.76197,-3.1731 3.15625,-4.34375 l 0.5,0.28125 c -0.18063,0.76006 -0.57762,1.45435 -0.84375,2.1875 -0.33868,0.78106 -0.65403,1.57371 -1.03125,2.34375 -0.49805,0.82374 -0.97312,1.65679 -1.4375,2.5 -0.32411,0.75578 -0.77805,1.45811 -1.09375,2.21875 -0.41411,0.65895 -0.63998,1.40841 -1.0625,2.0625 -0.32792,0.52908 -0.50742,1.13201 -0.84375,1.65625 -0.43095,0.64922 -0.74699,1.36468 -1.09375,2.0625 -0.43355,0.6926 -0.69146,1.46363 -1.125,2.15625 -0.30849,0.49541 -0.47278,1.06708 -0.78125,1.5625 -0.28549,0.47501 -0.57675,0.98864 -0.59375,1.5625 0.002,0.54023 0.70222,1.14333 1.1875,0.75 0.44995,-0.31272 0.63777,-0.87454 0.875,-1.34375 0.48642,-0.92027 1.0016,-1.81662 1.5,-2.71875 0.75932,-1.54849 1.67462,-2.99605 2.4375,-4.53125 1.05903,-1.97039 2.22822,-3.88796 3.3125,-5.84375 0.60048,-1.07893 1.23486,-2.11343 1.84375,-3.1875 0.35223,-0.57117 0.66463,-1.16996 1.125,-1.65625 0.103,-0.12005 0.28787,-0.13045 0.4375,-0.15625 l 0.125,0.0937 c 0.13651,0.48293 -0.0685,0.94737 -0.1875,1.40625 -0.17283,0.62986 -0.49766,1.19287 -0.78125,1.78125 -0.45838,1.39668 -1.10524,2.73447 -1.59375,4.125 -1.46509,3.80139 -2.74525,7.67223 -4.21875,11.46875 -0.59319,1.61073 -1.34058,3.15307 -2.03125,4.71875 -1.01763,2.15143 -2.2033,4.25503 -3.8125,6.03125 -0.29451,0.3351 -0.74031,0.52662 -1.03125,0.875 -0.336,0.44587 -0.91793,0.55761 -1.375,0.84375 -0.87585,0.36989 -1.70513,0.86152 -2.625,1.09375 -0.56971,0.13125 -1.10485,0.381 -1.6875,0.4375 -0.47286,0.0412 -0.91637,0.2181 -1.375,0.3125 -0.8473,0.18433 -1.62675,0.57889 -2.375,1 -0.79332,0.51857 -1.66534,0.97824 -2.21875,1.78125 -1.64585,2.68557 -2.92497,4.83935 -4.34375,7.28125 4.18767,2.46226 9.07532,3.875 14.28125,3.875 15.55255,0 28.15625,-12.6037 28.15625,-28.15625 0,-15.55255 -12.6037,-28.1875 -28.15625,-28.1875 z"
       id="path65590-1-7-5-17"
       style="opacity:0.83396212;color:#000000;fill:#e74c3c;fill-opacity:1;fill-rule:nonzero;stroke:none;stroke-width:5;marker:none;visibility:visible;display:inline;overflow:visible;enable-background:accumulate" />
  </g>
</svg>
