<?xml version="1.0" encoding="UTF-8" standalone="no"?>
<!-- Created with Inkscape (http://www.inkscape.org/) -->

<svg
   xmlns:dc="http://purl.org/dc/elements/1.1/"
   xmlns:cc="http://creativecommons.org/ns#"
   xmlns:rdf="http://www.w3.org/1999/02/22-rdf-syntax-ns#"
   xmlns:svg="http://www.w3.org/2000/svg"
   xmlns="http://www.w3.org/2000/svg"
   version="1.1"
   width="56.31255"
   height="56.3125"
   id="svg4324">
  <defs
     id="defs4326" />
  <metadata
     id="metadata4329">
    <rdf:RDF>
      <cc:Work
         rdf:about="">
        <dc:format>image/svg+xml</dc:format>
        <dc:type
           rdf:resource="http://purl.org/dc/dcmitype/StillImage" />
        <dc:title></dc:title>
      </cc:Work>
    </rdf:RDF>
  </metadata>
  <g
     transform="translate(-328.98658,-524.20593)"
     id="layer1">
    <path
       d="m 357.14283,524.20593 c -15.55255,0 -28.15625,12.6037 -28.15625,28.15625 0,12.69449 8.39378,23.42259 19.9375,26.9375 0,-4.3225 0,-8.76112 0,-12.46875 l -14.40625,0 c -0.67166,0 -1.30958,-0.24089 -1.78125,-0.71875 -0.47078,-0.47875 -0.72875,-1.14084 -0.71875,-1.8125 0.0106,-0.60972 0.36318,-15.04708 13,-25.6875 0.39656,-0.33417 0.864,-0.54275 1.34375,-0.59375 0.79959,-0.085 1.62834,0.24366 2.1875,0.90625 0.12301,0.14602 0.2276,0.30592 0.3125,0.46875 0.0681,0.1115 0.1424,0.21544 0.1875,0.34375 l 3.71875,10.46875 12.65625,0 c 1.03803,0 1.90625,0.83698 1.90625,1.875 0,1.03803 -0.86822,1.875 -1.90625,1.875 l -13.96875,0 c -0.79378,0 -1.51311,-0.50135 -1.78125,-1.25 l -3.125,-8.71875 c -6.54052,6.3777 -8.57806,13.96952 -9.21875,17.84375 l 14.125,0 c 1.38315,0 2.50089,1.11597 2.5,2.5 -0.0392,5.35033 0.0313,10.67426 0.0313,16 1.03822,0.11601 2.08701,0.1875 3.15625,0.1875 15.55255,0 28.15625,-12.6037 28.15625,-28.15625 0,-5.33062 -1.45872,-10.31348 -4.03125,-14.5625 l -4.5,10.40625 c 0.20354,0.12124 0.38939,0.2708 0.5,0.5 l 4.0625,8.46875 c 0.18584,0.3876 0.1667,0.82291 -0.0625,1.1875 -0.22919,0.36459 -0.63242,0.59375 -1.0625,0.59375 l -5.78125,0 c -0.6929,0 -1.25,-0.5571 -1.25,-1.25 0,-0.69201 0.5571,-1.25 1.25,-1.25 l 3.78125,0 -2.625,-5.46875 -1.34375,3.15625 -3.46875,-1.5 7.90625,-18.40625 c -5.16455,-6.13005 -12.88648,-10.03125 -21.53125,-10.03125 z m -3.1875,4.5 c 3.0282,0 5.5,2.4718 5.5,5.5 0,3.0282 -2.4718,5.46875 -5.5,5.46875 -3.0282,0 -5.46875,-2.44055 -5.46875,-5.46875 0,-3.0282 2.44055,-5.5 5.46875,-5.5 z m 8,27.75 c 0.0817,-0.0167 0.16339,0 0.25,0 l 7.21875,0 c 0.69379,0 1.25,0.55799 1.25,1.25 0,0.69291 -0.5571,1.25 -1.25,1.25 l -7.21875,0 c -0.6929,0 -1.25,-0.55709 -1.25,-1.25 0,-0.60551 0.42842,-1.13315 1,-1.25 z"
       id="path65590-1-7-5-9"
       style="opacity:0.83396212;color:#000000;fill:#e74c3c;fill-opacity:1;fill-rule:nonzero;stroke:none;stroke-width:5;marker:none;visibility:visible;display:inline;overflow:visible;enable-background:accumulate" />
  </g>
</svg>
