<?xml version="1.0" encoding="UTF-8" standalone="no"?>
<!-- Created with Inkscape (http://www.inkscape.org/) -->

<svg
   xmlns:dc="http://purl.org/dc/elements/1.1/"
   xmlns:cc="http://creativecommons.org/ns#"
   xmlns:rdf="http://www.w3.org/1999/02/22-rdf-syntax-ns#"
   xmlns:svg="http://www.w3.org/2000/svg"
   xmlns="http://www.w3.org/2000/svg"
   xmlns:sodipodi="http://sodipodi.sourceforge.net/DTD/sodipodi-0.dtd"
   xmlns:inkscape="http://www.inkscape.org/namespaces/inkscape"
   width="82.5625"
   height="121.81235"
   id="svg13460"
   version="1.1"
   inkscape:version="0.48.4 r9939"
   sodipodi:docname="New document 42">
  <defs
     id="defs13462">
    <filter
       color-interpolation-filters="sRGB"
       inkscape:collect="always"
       id="filter4168-0-9-3-62-7-4"
       x="-0.32395345"
       width="1.6479069"
       y="-0.64790696"
       height="2.2958138">
      <feGaussianBlur
         inkscape:collect="always"
         stdDeviation="4.7814573"
         id="feGaussianBlur4170-78-1-1-84-8-3" />
    </filter>
  </defs>
  <sodipodi:namedview
     id="base"
     pagecolor="#ffffff"
     bordercolor="#666666"
     borderopacity="1.0"
     inkscape:pageopacity="0.0"
     inkscape:pageshadow="2"
     inkscape:zoom="0.35"
     inkscape:cx="-3.71875"
     inkscape:cy="198.04903"
     inkscape:document-units="px"
     inkscape:current-layer="layer1"
     showgrid="false"
     fit-margin-top="0"
     fit-margin-left="0"
     fit-margin-right="0"
     fit-margin-bottom="0"
     inkscape:window-width="533"
     inkscape:window-height="436"
     inkscape:window-x="1366"
     inkscape:window-y="28"
     inkscape:window-maximized="0" />
  <metadata
     id="metadata13465">
    <rdf:RDF>
      <cc:Work
         rdf:about="">
        <dc:format>image/svg+xml</dc:format>
        <dc:type
           rdf:resource="http://purl.org/dc/dcmitype/StillImage" />
        <dc:title></dc:title>
      </cc:Work>
    </rdf:RDF>
  </metadata>
  <g
     inkscape:label="Layer 1"
     inkscape:groupmode="layer"
     id="layer1"
     transform="translate(-378.71875,-608.59887)">
    <path
       sodipodi:type="arc"
       style="opacity:0.72830188;color:#000000;fill:#6c5367;fill-opacity:0.5372549;fill-rule:nonzero;stroke:none;stroke-width:5;marker:none;visibility:visible;display:inline;overflow:visible;filter:url(#filter4168-0-9-3-62-7-4);enable-background:accumulate"
       id="path4158-41-5-4-3-4-4"
       sodipodi:cx="450.38187"
       sodipodi:cy="628.04175"
       sodipodi:rx="17.711645"
       sodipodi:ry="8.8558226"
       d="m 468.09351,628.04175 c 0,4.89093 -7.92977,8.85582 -17.71164,8.85582 -9.78188,0 -17.71165,-3.96489 -17.71165,-8.85582 0,-4.89094 7.92977,-8.85582 17.71165,-8.85582 9.78187,0 17.71164,3.96488 17.71164,8.85582 z"
       transform="matrix(1,0,0,0.47142855,-42.03849,424.74964)" />
    <path
       sodipodi:nodetypes="sssss"
       style="color:#000000;fill:#e74c3c;fill-opacity:1;fill-rule:nonzero;stroke:none;stroke-width:5;marker:none;visibility:visible;display:inline;overflow:visible;enable-background:accumulate"
       d="m 419.99995,608.59887 c -22.7932,0 -41.2812,18.45678 -41.2812,41.25 0,22.79323 33.8814,72.47304 41.2812,72.47304 7.97,0 41.2813,-49.67981 41.2813,-72.47304 0,-22.79322 -18.488,-41.25 -41.2813,-41.25 z"
       id="path2987-5-8-0-93-6-8-8"
       inkscape:connector-curvature="0" />
    <path
       inkscape:connector-curvature="0"
       style="color:#000000;fill:#ffffff;fill-opacity:1;fill-rule:nonzero;stroke:none;stroke-width:5;marker:none;visibility:visible;display:inline;overflow:visible;enable-background:accumulate"
       d="m 430.92644,631.59535 -1.125,12.46875 c 2.39219,1.24168 3.69315,1.89101 5.75,3.9375 l 11.625,-4.3125 c -0.0862,-0.24256 -0.18864,-0.47931 -0.28125,-0.71875 l -7.90625,-0.21875 2.5625,-8.5 c -0.35136,-0.389 -0.72145,-0.75617 -1.09375,-1.125 l -5.5,6.8125 -4.03125,-8.34375 z m -15.5625,4.1875 c -0.80679,0 -1.46875,0.66196 -1.46875,1.46875 l 0,1.21875 c 0,0.80681 0.66196,1.4375 1.46875,1.4375 l 3.34375,0 0,3.09375 c -11.10099,0.61504 -19.96947,9.68742 -20.25,20.875 l 42.875,0 c -0.28239,-11.26231 -9.23226,-20.3697 -20.4375,-20.875 l 0,-3.09375 3.53125,0 c 0.80679,0 1.46875,-0.63069 1.46875,-1.4375 l 0,-1.21875 c 0,-0.80679 -0.66196,-1.46875 -1.46875,-1.46875 l -9.0625,0 z"
       id="path65590-1-7-5-2" />
  </g>
</svg>
