<?xml version="1.0" encoding="UTF-8" standalone="no"?>
<!-- Created with Inkscape (http://www.inkscape.org/) -->

<svg
   xmlns:dc="http://purl.org/dc/elements/1.1/"
   xmlns:cc="http://creativecommons.org/ns#"
   xmlns:rdf="http://www.w3.org/1999/02/22-rdf-syntax-ns#"
   xmlns:svg="http://www.w3.org/2000/svg"
   xmlns="http://www.w3.org/2000/svg"
   version="1.1"
   width="82.562553"
   height="123.43295"
   id="svg4461">
  <defs
     id="defs4463">
    <filter
       x="-0.32395345"
       y="-0.64790696"
       width="1.6479069"
       height="2.2958138"
       color-interpolation-filters="sRGB"
       id="filter4168-0-9-3-3-6">
      <feGaussianBlur
         id="feGaussianBlur4170-78-1-1-80-0"
         stdDeviation="4.7814573" />
    </filter>
    <filter
       x="-0.32395345"
       y="-0.64790696"
       width="1.6479069"
       height="2.2958138"
       color-interpolation-filters="sRGB"
       id="filter4168-0-9-3-3-6-7">
      <feGaussianBlur
         id="feGaussianBlur4170-78-1-1-80-0-9"
         stdDeviation="4.7814573" />
    </filter>
  </defs>
  <metadata
     id="metadata4466">
    <rdf:RDF>
      <cc:Work
         rdf:about="">
        <dc:format>image/svg+xml</dc:format>
        <dc:type
           rdf:resource="http://purl.org/dc/dcmitype/StillImage" />
        <dc:title></dc:title>
      </cc:Work>
    </rdf:RDF>
  </metadata>
  <g
     transform="translate(-362.01243,-420.5748)"
     id="layer1">
    <path
       d="m 468.09351,628.04175 a 17.711645,8.8558226 0 1 1 -35.42329,0 17.711645,8.8558226 0 1 1 35.42329,0 z"
       transform="matrix(1,0,0,0.47142855,-59.129576,238.34617)"
       id="path4158-41-5-4-4-3-3"
       style="opacity:0.72830188;color:#000000;fill:#6c5367;fill-opacity:0.53777777;fill-rule:nonzero;stroke:none;stroke-width:5;marker:none;visibility:visible;display:inline;overflow:visible;filter:url(#filter4168-0-9-3-3-6-7);enable-background:accumulate" />
    <path
       d="m 403.29368,420.5748 c -22.79322,0 -41.28125,18.45678 -41.28125,41.25 0,22.79323 33.88144,72.47304 41.28125,72.47304 7.96994,0 41.2813,-49.67981 41.2813,-72.47304 0,-22.79322 -18.48808,-41.25 -41.2813,-41.25 z"
       id="path2987-5-8-0-93-4"
       style="color:#000000;fill:#9a56b5;fill-opacity:1;fill-rule:nonzero;stroke:none;stroke-width:5;marker:none;visibility:visible;display:inline;overflow:visible;enable-background:accumulate" />
    <path
       d="m 416.74539,450.7845 c -3.3171,0 -6,2.70496 -6,6.03125 0,3.32262 2.68382,6 6,6 3.33548,0 6.03125,-2.67738 6.03125,-6 0,-3.32629 -2.69577,-6.03125 -6.03125,-6.03125 z m -35.65625,14.34375 c -0.26394,0 -0.54922,0.0791 -0.75,0.28125 -0.4043,0.40247 -0.40468,1.06354 0,1.46875 l 10.1875,10.1875 c -0.22145,0.36387 -0.5625,1.09573 -0.5625,1.5625 0,1.40679 1.12723,2.5625 2.53125,2.5625 l 8.375,0 c 0.94826,0 2.18765,-0.38993 2.71875,-1.1875 1.79454,-2.66562 3.69132,-5.47174 4.25,-6.3125 l 0,15.78125 10.1875,0 c 4.58459,-2.65645 8.3354,-6.5524 10.8125,-11.25 l 0,-4.9375 c 0,-4.23321 -2.55808,-8.03125 -6.46875,-8.03125 -1.66202,-0.0576 -5.02867,-0.17341 -9.71875,-0.0937 l -1.125,0 c -2.69412,0 -5.07206,1.38385 -6.4375,3.4375 l -5,7.5625 -7.59375,0 -10.6875,-10.75 c -0.20077,-0.20215 -0.45481,-0.28125 -0.71875,-0.28125 z"
       id="path23-4-0"
       style="fill:#ffffff;stroke:none" />
  </g>
</svg>
