<?xml version="1.0" encoding="UTF-8" standalone="no"?>
<!-- Created with Inkscape (http://www.inkscape.org/) -->

<svg
   xmlns:dc="http://purl.org/dc/elements/1.1/"
   xmlns:cc="http://creativecommons.org/ns#"
   xmlns:rdf="http://www.w3.org/1999/02/22-rdf-syntax-ns#"
   xmlns:svg="http://www.w3.org/2000/svg"
   xmlns="http://www.w3.org/2000/svg"
   version="1.1"
   width="56.3125"
   height="56.642372"
   id="svg4433">
  <defs
     id="defs4435" />
  <metadata
     id="metadata4438">
    <rdf:RDF>
      <cc:Work
         rdf:about="">
        <dc:format>image/svg+xml</dc:format>
        <dc:type
           rdf:resource="http://purl.org/dc/dcmitype/StillImage" />
        <dc:title></dc:title>
      </cc:Work>
    </rdf:RDF>
  </metadata>
  <g
     transform="translate(-300.41518,-578.32671)"
     id="layer1">
    <path
       d="m 353.73682,619.19658 c 2.19596,-4.00969 2.99086,-7.81872 2.99086,-12.71362 0,-15.55255 -12.6037,-28.15625 -28.15625,-28.15625 -15.55255,0 -28.15625,12.6037 -28.15625,28.15625 0,4.61223 1.12866,8.97076 3.09375,12.8125 1.60451,-1.00119 3.49483,-1.59375 5.53125,-1.59375 l 3.8125,0 c 5.80131,0 10.46875,4.66744 10.46875,10.46875 l 0.28125,5.8125 c 3.33556,1.35176 7.6861,1.35287 11.65791,-0.23939 -0.66983,-2.05171 -0.64717,-3.95102 -0.57218,-5.61091 0,-5.80131 4.89423,-10.43095 10.69554,-10.43095 l 3.84375,0 c 1.38315,0.16224 3.54201,0.81513 4.50912,1.49487 z m -27.69664,-35.02612 15.46875,0 c 1.90354,0 3.40625,1.53397 3.40625,3.4375 l 0,5.28125 c 0,1.90353 -1.50271,3.40625 -3.40625,3.40625 l -1.9375,0 2.5,6.1875 -8.3125,-6.1875 -2.15625,0 c 0.0585,-0.22167 0.0625,-0.44695 0.0625,-0.6875 l 0,-4.125 c 0,-1.4957 -1.1918,-2.71875 -2.6875,-2.71875 l -6.375,0 0,-1.15625 c 0,-1.90353 1.53396,-3.4375 3.4375,-3.4375 z m -8.8125,5.0625 11.375,0 c 1.39865,0 2.53125,1.1326 2.53125,2.53125 l 0,3.84375 c 0,1.39864 -1.1326,2.53125 -2.53125,2.53125 l -1.4375,0 -1.40625,0 -2.84375,0 -6.09375,4.5625 1.84375,-4.5625 -1.4375,0 c -1.39865,0 -2.5,-1.13261 -2.5,-2.53125 l 0,-3.84375 c 0,-1.39865 1.10135,-2.53125 2.5,-2.53125 z m -5.875,12.9375 c 4.14473,0 7.5,3.35527 7.5,7.5 0,4.14473 -3.35527,7.5 -7.5,7.5 -4.14473,0 -7.5,-3.35527 -7.5,-7.5 0,-4.14473 3.35527,-7.5 7.5,-7.5 z m 35.59375,0 c 4.14473,0 7.5,3.35527 7.5,7.5 0,4.14473 -3.35527,7.5 -7.5,7.5 -4.14473,0 -7.53125,-3.35527 -7.53125,-7.5 0,-4.14473 3.38652,-7.5 7.53125,-7.5 z"
       id="path65590-1-7-5-1"
       style="opacity:0.83396212;color:#000000;fill:#e74c3c;fill-opacity:1;fill-rule:nonzero;stroke:none;stroke-width:5;marker:none;visibility:visible;display:inline;overflow:visible;enable-background:accumulate" />
  </g>
</svg>
