<?xml version="1.0" encoding="UTF-8" standalone="no"?>
<!-- Created with Inkscape (http://www.inkscape.org/) -->

<svg
   xmlns:dc="http://purl.org/dc/elements/1.1/"
   xmlns:cc="http://creativecommons.org/ns#"
   xmlns:rdf="http://www.w3.org/1999/02/22-rdf-syntax-ns#"
   xmlns:svg="http://www.w3.org/2000/svg"
   xmlns="http://www.w3.org/2000/svg"
   version="1.1"
   width="82.562553"
   height="121.81235"
   id="svg47139">
  <defs
     id="defs47141">
    <filter
       x="-0.32395345"
       y="-0.64790696"
       width="1.6479069"
       height="2.2958138"
       color-interpolation-filters="sRGB"
       id="filter4168-0-9-3-62-6">
      <feGaussianBlur
         id="feGaussianBlur4170-78-1-1-84-9"
         stdDeviation="4.7814573" />
    </filter>
  </defs>
  <metadata
     id="metadata47144">
    <rdf:RDF>
      <cc:Work
         rdf:about="">
        <dc:format>image/svg+xml</dc:format>
        <dc:type
           rdf:resource="http://purl.org/dc/dcmitype/StillImage" />
        <dc:title></dc:title>
      </cc:Work>
    </rdf:RDF>
  </metadata>
  <g
     transform="translate(-321.57587,-468.59887)"
     id="layer1">
    <path
       d="m 468.09351,628.04175 c 0,4.89093 -7.92977,8.85582 -17.71164,8.85582 -9.78188,0 -17.71165,-3.96489 -17.71165,-8.85582 0,-4.89094 7.92977,-8.85582 17.71165,-8.85582 9.78187,0 17.71164,3.96488 17.71164,8.85582 z"
       transform="matrix(1,0,0,0.47142855,-99.181322,284.74964)"
       id="path4158-41-5-4-3-0"
       style="opacity:0.72830188;color:#000000;fill:#6c535d;fill-opacity:0.5372549;fill-rule:nonzero;stroke:none;stroke-width:5;marker:none;visibility:visible;display:inline;overflow:visible;filter:url(#filter4168-0-9-3-62-6);enable-background:accumulate" />
    <path
       d="m 362.85712,468.59887 c -22.79322,0 -41.28125,18.45678 -41.28125,41.25 0,22.79323 33.88144,72.47304 41.28125,72.47304 7.96994,0 41.2813,-49.67981 41.2813,-72.47304 0,-22.79322 -18.48808,-41.25 -41.2813,-41.25 z"
       id="path2987-5-8-0-93-6-55"
       style="color:#000000;fill:#e74c3c;fill-opacity:1;fill-rule:nonzero;stroke:none;stroke-width:5;marker:none;visibility:visible;display:inline;overflow:visible;enable-background:accumulate" />
    <g
       transform="translate(-16.931912,120.82946)"
       id="text47127"
       style="font-size:68.96272278px;font-style:normal;font-variant:normal;font-weight:normal;font-stretch:normal;line-height:125%;letter-spacing:0px;word-spacing:0px;fill:#ffffff;fill-opacity:1;stroke:none;font-family:Arial;-inkscape-font-specification:Arial">
      <path
         d="m 377.85091,405.72108 -2.45814,-25.05286 0,-11.58358 10.23665,0 0,11.58358 -2.42447,25.05286 -5.35404,0 m -2.05406,12.72847 0,-9.46217 9.46217,0 0,9.46217 -9.46217,0"
         id="path47136"
         style="font-weight:bold;-inkscape-font-specification:Arial Bold" />
    </g>
  </g>
</svg>
